<svg xmlns="http://www.w3.org/2000/svg" width="30" height="29" viewBox="0 0 30 29" fill="none">
  <path d="M5 12.8889C5 8.69889 5 6.60333 6.30222 5.30222C7.60333 4 9.69889 4 13.8889 4H16.1111C20.3011 4 22.3967 4 23.6978 5.30222C25 6.60333 25 8.69889 25 12.8889V15.1111C25 19.3011 25 21.3967 23.6978 22.6978C22.3967 24 20.3011 24 16.1111 24H13.8889C9.69889 24 7.60333 24 6.30222 22.6978C5 21.3967 5 19.3011 5 15.1111V12.8889Z" stroke="#F8F8F8" stroke-width="2.5"/>
  <path d="M19.9997 10.6663C20.9201 10.6663 21.6663 9.92015 21.6663 8.99967C21.6663 8.0792 20.9201 7.33301 19.9997 7.33301C19.0792 7.33301 18.333 8.0792 18.333 8.99967C18.333 9.92015 19.0792 10.6663 19.9997 10.6663Z" fill="#F8F8F8"/>
  <path d="M15.0003 17.3337C16.8413 17.3337 18.3337 15.8413 18.3337 14.0003C18.3337 12.1594 16.8413 10.667 15.0003 10.667C13.1594 10.667 11.667 12.1594 11.667 14.0003C11.667 15.8413 13.1594 17.3337 15.0003 17.3337Z" stroke="#F8F8F8" stroke-width="2.5"/>
</svg>