<svg xmlns="http://www.w3.org/2000/svg" width="35" height="34" viewBox="0 0 35 34" fill="none">
  <path d="M18.6051 6.75879C12.6126 6.75879 9.59082 11.0555 9.59082 14.6383C9.59082 16.81 10.4139 18.7381 12.1734 19.4564C12.4638 19.5754 12.7217 19.462 12.8052 19.1433L13.0631 18.1275C13.1495 17.8145 13.1155 17.7025 12.8832 17.4263C12.3746 16.8285 12.0502 16.0493 12.0502 14.9514C12.0502 11.7639 14.4344 8.91071 18.2608 8.91071C21.6495 8.91071 23.511 10.9833 23.511 13.7444C23.511 17.3824 21.9002 20.4509 19.5103 20.4509C18.19 20.4509 17.2026 19.36 17.5199 18.0213C17.8996 16.4205 18.6334 14.6964 18.6334 13.5446C18.6334 12.5119 18.0781 11.652 16.9334 11.652C15.5847 11.652 14.4996 13.046 14.4996 14.916C14.4996 16.1074 14.9047 16.912 14.9047 16.912L13.2812 23.7857C12.7996 25.8257 13.209 28.3275 13.2458 28.5811C13.2642 28.7285 13.4569 28.7667 13.5433 28.6534C13.668 28.4905 15.2759 26.5043 15.8199 24.5238C15.9772 23.9628 16.7082 21.06 16.7082 21.06C17.1487 21.8945 18.4266 22.6297 19.7894 22.6297C23.8453 22.6297 26.5951 18.935 26.5951 13.9838C26.5908 10.2438 23.4217 6.75879 18.6051 6.75879Z" fill="#F8F8F8"/>
</svg>