<svg xmlns="http://www.w3.org/2000/svg" width="35" height="34" viewBox="0 0 35 34" fill="none">
  <g clip-path="url(#clip0_2091_973)">
    <path d="M26.6136 8.84325C26.7097 8.73338 26.7832 8.60567 26.8299 8.46739C26.8766 8.32912 26.8956 8.183 26.8859 8.03737C26.8761 7.89175 26.8378 7.74947 26.7731 7.61866C26.7083 7.48785 26.6185 7.37107 26.5086 7.27499C26.3987 7.17891 26.271 7.10541 26.1327 7.05869C25.9945 7.01197 25.8484 6.99294 25.7027 7.00269C25.5571 7.01244 25.4148 7.05077 25.284 7.11551C25.1532 7.18025 25.0364 7.27012 24.9403 7.37998L19.2628 13.8686L14.4442 7.44442C14.3407 7.30644 14.2065 7.19444 14.0522 7.1173C13.8979 7.04016 13.7278 7 13.5553 7H9.11106C8.90472 7 8.70246 7.05746 8.52694 7.16594C8.35142 7.27441 8.20957 7.42963 8.1173 7.61418C8.02502 7.79873 7.98596 8.00534 8.00449 8.21084C8.02302 8.41634 8.09841 8.61263 8.22221 8.7777L15.3741 18.3128L9.38549 25.157C9.28941 25.2668 9.21591 25.3945 9.16919 25.5328C9.12247 25.6711 9.10344 25.8172 9.11319 25.9628C9.12294 26.1085 9.16128 26.2507 9.22602 26.3815C9.29075 26.5124 9.38062 26.6291 9.49049 26.7252C9.60036 26.8213 9.72807 26.8948 9.86634 26.9415C10.0046 26.9882 10.1507 27.0073 10.2964 26.9975C10.442 26.9878 10.5843 26.9494 10.7151 26.8847C10.8459 26.82 10.9627 26.7301 11.0588 26.6202L16.7363 20.1305L21.5549 26.5547C21.6584 26.6927 21.7926 26.8047 21.9469 26.8818C22.1012 26.9589 22.2713 26.9991 22.4438 26.9991H26.888C27.0944 26.9991 27.2966 26.9416 27.4722 26.8332C27.6477 26.7247 27.7895 26.5695 27.8818 26.3849C27.9741 26.2004 28.0131 25.9938 27.9946 25.7883C27.9761 25.5828 27.9007 25.3865 27.7769 25.2214L20.625 15.6863L26.6136 8.84325Z" fill="#F8F8F8"/>
  </g>
  <defs>
    <clipPath id="clip0_2091_973">
      <rect width="34" height="34" fill="white" transform="translate(0.5)"/>
    </clipPath>
  </defs>
</svg>